# Blender v3.2.0 OBJ File: ''
# www.blender.org
mtllib TRY.mtl
o TRY.001
v -0.483335 -0.269432 -0.394641
v -0.475003 -0.283864 -0.394641
v 0.000000 -0.009622 0.381034
v -0.008332 0.004811 0.381034
v -0.475003 -0.274243 -0.408248
v -0.008333 0.553296 -0.394641
v 0.000000 0.548486 -0.408248
v 0.475002 -0.274243 -0.408248
v 0.475002 -0.283864 -0.394641
v 0.483335 -0.269432 -0.394641
v 0.008332 0.004811 0.381034
v 0.008332 0.553296 -0.394641
vt 0.077187 0.844173
vt 0.068734 0.844097
vt 0.071244 0.565879
vt 0.079698 0.565956
vt 0.156295 0.498703
vt 0.161172 0.498870
vt 0.144692 0.980494
vt 0.139814 0.980328
vt 0.125906 0.923552
vt 0.119003 0.923552
vt 0.119003 0.441645
vt 0.125906 0.441645
vt 0.029957 0.578920
vt 0.038411 0.578916
vt 0.038530 0.857145
vt 0.030077 0.857149
vt 0.184634 0.974294
vt 0.179755 0.974150
vt 0.193947 0.492452
vt 0.198826 0.492596
vt 0.093728 0.526016
vt 0.102181 0.526016
vt 0.102181 0.919491
vt 0.093728 0.919491
vt 0.153210 0.005136
vt 0.570553 0.246090
vt 0.153210 0.487043
vt 0.584981 0.482816
vt 0.584981 0.000910
vt 0.978456 0.241863
vt 0.986952 0.909271
vt 0.575125 0.976899
vt 0.785915 0.543539
vt 0.241649 0.623987
vt 0.658196 0.598219
vt 0.543641 0.999533
vt 0.033428 0.538520
vt 0.040330 0.540961
vt 0.033428 0.545841
vt 0.029289 0.545841
vt 0.022386 0.540961
vt 0.029289 0.538520
vt 0.032286 0.533239
vt 0.036513 0.526336
vt 0.040740 0.533239
vt 0.027915 0.535314
vt 0.020593 0.531087
vt 0.027915 0.526860
vn -0.7071 -0.4082 0.5774
vn -0.7071 0.4083 -0.5773
vn 0.0000 -0.8165 -0.5773
vn 0.7071 -0.4082 0.5774
vn 0.7071 0.4083 -0.5773
vn 0.0000 0.8165 0.5774
vn 0.0000 0.0000 -1.0000
vn 0.0000 -0.9428 0.3333
vn 0.8165 0.4714 0.3333
vn -0.8165 0.4714 0.3333
vn -0.8165 -0.4714 -0.3333
vn 0.8165 -0.4714 -0.3333
vn 0.0000 0.9428 -0.3333
vn 0.0000 0.0000 1.0000
usemtl initialShadingGroup.001
s 1
f 1/1/1 2/2/1 3/3/1 4/4/1
f 5/5/2 1/6/2 6/7/2 7/8/2
f 2/9/3 5/10/3 8/11/3 9/12/3
f 9/13/4 10/14/4 11/15/4 3/16/4
f 10/17/5 8/18/5 7/19/5 12/20/5
f 12/21/6 6/22/6 4/23/6 11/24/6
f 5/25/7 7/26/7 8/27/7
f 2/28/8 9/29/8 3/30/8
f 10/31/9 12/32/9 11/33/9
f 6/34/10 1/35/10 4/36/10
f 1/37/11 5/38/11 2/39/11
f 9/40/12 8/41/12 10/42/12
f 12/43/13 7/44/13 6/45/13
f 4/46/14 3/47/14 11/48/14
