# Blender v3.2.0 OBJ File: ''
# www.blender.org
mtllib arrow.mtl
o mesh_id4
v 0.086231 -0.171296 0.262662
v 0.086231 0.170690 0.240145
v 0.077647 0.168510 0.207036
v 0.077647 -0.173476 0.229554
v 0.086231 -0.171296 0.262662
v 0.077647 -0.173476 0.229554
v 0.243550 -0.005479 0.175482
v 0.252133 -0.003299 0.208590
v 0.077647 0.168510 0.207036
v 0.086231 0.170690 0.240145
v 0.252133 -0.003299 0.208590
v 0.243550 -0.005479 0.175482
v 0.077647 -0.173476 0.229554
v 0.077647 0.168510 0.207036
v 0.243550 -0.005479 0.175482
v 0.252133 -0.003299 0.208590
v 0.086231 0.170690 0.240145
v 0.086231 -0.171296 0.262662
vt 0.000131 0.999759
vt 0.931550 0.999759
vt 0.931550 0.906617
vt 0.000131 0.906617
vt 0.103727 0.260142
vt 0.000175 0.276415
vt 0.198800 0.903825
vt 0.293675 0.890060
vt 0.827413 0.644172
vt 0.930980 0.627654
vt 0.730782 0.000059
vt 0.635933 0.014037
vt 0.017401 0.208972
vt 0.827413 0.644172
vt 0.635933 0.014037
vt 0.293675 0.890060
vt 0.913287 0.696237
vt 0.103727 0.260142
vn -0.9681 0.0165 0.2499
vn 0.6842 -0.7176 -0.1301
vn 0.6849 0.6936 -0.2232
vn -0.2504 -0.0636 -0.9660
vn 0.2504 0.0636 0.9660
usemtl 71
s off
f 1/1/1 2/2/1 3/3/1
f 1/1/1 3/3/1 4/4/1
f 5/5/2 6/6/2 7/7/2
f 5/5/2 7/7/2 8/8/2
f 9/9/3 10/10/3 11/11/3
f 9/9/3 11/11/3 12/12/3
f 13/13/4 14/14/4 15/15/4
f 16/16/5 17/17/5 18/18/5
o mesh_id5
v 0.079671 -0.088014 0.223402
v 0.079671 0.082979 0.212143
v 0.088255 0.085159 0.245252
v 0.088255 -0.085834 0.256510
v -0.243549 -0.080195 0.342160
v -0.243549 0.090799 0.330902
v -0.252133 0.088619 0.297793
v -0.252133 -0.082375 0.309052
v -0.243549 -0.080195 0.342160
v -0.252133 -0.082375 0.309052
v 0.079671 -0.088014 0.223402
v 0.088255 -0.085834 0.256510
v -0.252133 0.088619 0.297793
v -0.243549 0.090799 0.330902
v 0.088255 0.085159 0.245252
v 0.079671 0.082979 0.212143
v -0.252133 -0.082375 0.309052
v -0.252133 0.088619 0.297793
v 0.079671 0.082979 0.212143
v -0.252133 -0.082375 0.309052
v 0.079671 0.082979 0.212143
v 0.079671 -0.088014 0.223402
v 0.088255 -0.085834 0.256510
v 0.088255 0.085159 0.245252
v -0.243549 0.090799 0.330902
v 0.088255 -0.085834 0.256510
v -0.243549 0.090799 0.330902
v -0.243549 -0.080195 0.342160
vt 0.546348 0.742525
vt 0.547003 0.513936
vt 0.498662 0.522641
vt 0.498007 0.751230
vt 0.427196 0.811255
vt 0.579346 0.999845
vt 0.590247 0.948747
vt 0.439311 0.747709
vt 0.427196 0.811255
vt 0.439311 0.747709
vt 0.000111 0.921693
vt 0.026266 0.997564
vt 0.590247 0.948747
vt 0.579346 0.999845
vt 0.999889 0.862792
vt 0.993734 0.811166
vt 0.439311 0.747709
vt 0.590247 0.948747
vt 0.993734 0.811166
vt 0.999939 0.747856
vt 0.547003 0.513936
vt 0.546348 0.742525
vt 0.498007 0.751230
vt 0.498662 0.522641
vt 0.045071 0.517310
vt 0.026266 0.997564
vt 0.579346 0.999845
vt 0.427196 0.811255
vn 0.9681 -0.0165 -0.2499
vn -0.9681 0.0165 0.2499
vn 0.0000 -0.9978 0.0657
vn 0.0000 0.9978 -0.0657
vn -0.2504 -0.0636 -0.9660
vn 0.2504 0.0636 0.9660
usemtl 73
s off
f 19/19/6 20/20/6 21/21/6
f 19/19/6 21/21/6 22/22/6
f 23/23/7 24/24/7 25/25/7
f 23/23/7 25/25/7 26/26/7
f 27/27/8 28/28/8 29/29/8
f 27/27/8 29/29/8 30/30/8
f 31/31/9 32/32/9 33/33/9
f 31/31/9 33/33/9 34/34/9
f 35/35/10 36/36/10 37/37/10
f 38/38/10 39/39/10 40/40/10
f 41/41/11 42/42/11 43/43/11
f 44/44/11 45/45/11 46/46/11
